<svg xmlns="http://www.w3.org/2000/svg" aria-hidden="true" style="position:absolute;width:0;height:0;overflow:hidden">
  <defs>
    <symbol id="group1" viewBox="0 0 32 32">
      <path d="M9.08.292A.998.998 0 0 1 9.786 0h12.428c.265 0 .519.105.706.292l8.788 8.788a.998.998 0 0 1 .292.706v12.428a.998.998 0 0 1-.292.706l-8.788 8.788a.998.998 0 0 1-.706.292H9.786a.998.998 0 0 1-.706-.292l-8.788-8.788a.998.998 0 0 1 0-22.214V9.786c0-.265.105-.519.292-.706l9.08-9.08.292z M10.2 2h11.6l8.2 8.2v11.6l-8.2 8.2h-11.6l-8.2-8.2V10.2L10.2 2z"/>
    </symbol>
    <symbol id="group2" viewBox="0 0 32 32">
          <path d="M9.292 9.292A.991.991 0 0 1 10 8.999a1.002 1.002 0 0 1 .708.293L16 14.586l5.292-5.294a.991.991 0 0 1 2 8.999a1.006 1.006 0 0 1 .925.618 1.01 1.01 0 0 1 0 .766c-.05.121-.124.232-.217.325L17.414 16l5.294 5.292a.991.991 0 0 1 .293.708 1.006 1.006 0 0 1-.618.925 1.01 1.01 0 0 1-.766 0 1.002 1.002 0 0 1-.325-.217L16 17.414l-5.292 5.294a.991.991 0 0 1 .708.293 1.006 1.006 0 0 1-.925-.618 1.006 1.006 0 0 1 .217-1.091L14.586 16l-5.294-5.292a.991.991 0 0 1 8.999 10a1.002 1.002 0 0 1 .293-.708z"/>
    </symbol>
  </defs>
</svg>