<svg xmlns="http://www.w3.org/2000/svg" aria-hidden="true" style="position:absolute;width:0;height:0;overflow:hidden">
  <defs>
    <symbol id="octagon" viewBox="0 0 24 24">
      <path d="M6.81.219A.751.751 0 0 1 7.339 0h9.321a.75.75 0 0 1 .529.219L23.78 6.81c.14.141.219.331.219.529v9.321a.75.75 0 0 1-.219.529l-6.591 6.591a.751.751 0 0 1-.529.219H7.339a.748.748 0 0 1-.529-.219L.219 17.189A.751.751 0 0 1 0 16.66V7.339c0-.199.079-.389.219-.529L6.81.219zM7.65 1.5 1.5 7.65v8.7l6.15 6.15h8.7l6.15-6.15v-8.7L16.35 1.5h-8.7z"/>
      <path d="M6.969 6.969a.746.746 0 0 1 .818-.163.757.757 0 0 1 .244.163L12 10.939l3.969-3.971a.757.757 0 0 1 .531-.22.742.742 0 0 1 .531.22.757.757 0 0 1 .22.531.746.746 0 0 1-.22.531l-3.971 3.969 3.971 3.969a.757.757 0 0 1 .22.531.746.746 0 0 1-.464.694.746.746 0 0 1-.818-.163L12 13.059 8.031 17.03a.757.757 0 0 1-.531.22.746.746 0 0 1-.694-.464.746.746 0 0 1 .163-.818l3.97-3.969L6.968 8.03a.746.746 0 0 1-.163-.818.757.757 0 0 1 .163-.244z"/>
    </symbol>
  </defs>
</svg>